<?xml version="1.0" encoding="utf-8"?>
<!-- Generator: Adobe Illustrator 28.2.0, SVG Export Plug-In . SVG Version: 6.00 Build 0)  -->
<svg version="1.1" id="Layer_1" xmlns="http://www.w3.org/2000/svg" xmlns:xlink="http://www.w3.org/1999/xlink" x="0px" y="0px"
	 viewBox="0 0 252 144" style="enable-background:new 0 0 252 144;" xml:space="preserve">
<style type="text/css">
	.st0{fill:#010101;}
	.st1{fill:#FFFFFF;}
</style>
<g>
	<path class="st0" d="M-220.04,133.97v-15.99h6.68c3.66,0,6.28,1.38,6.28,5c0,3.73-2.62,5.05-6.28,5.05h-3.05v5.94H-220.04z
		 M-213.6,125.17c1.68,0,2.74-0.56,2.74-2.19c0-1.52-1.06-2.14-2.74-2.14h-2.81v4.33H-213.6z"/>
	<path class="st0" d="M-204.3,133.97v-15.99h12.58v2.86h-8.95v3.28h8.31V127h-8.31v4.11h9.25v2.86H-204.3z"/>
	<path class="st0" d="M-177.81,133.97l-2.03-3.33c-1.98-3.26-2.9-3.44-3.71-3.44h-1.39v6.77h-3.61v-15.99h7.65
		c3.16,0,6.23,0.94,6.23,4.38c0,2.79-1.91,4.15-4.32,4.47v0.04c1.04,0.27,1.84,1.43,2.46,2.39l2.95,4.71H-177.81z M-181.07,124.66
		c2.01,0,2.62-0.74,2.62-1.92c0-1.03-0.61-1.88-2.43-1.88h-4.06v3.8H-181.07z"/>
	<path class="st0" d="M-171.48,133.97v-15.99h11.61v2.86h-7.98v3.57h6.89v2.86h-6.89v6.7H-171.48z"/>
	<path class="st0" d="M-157.08,133.97v-15.99h12.58v2.86h-8.95v3.28h8.31V127h-8.31v4.11h9.25v2.86H-157.08z"/>
	<path class="st0" d="M-126.7,129.33c-0.99,3.44-3.49,4.91-7.11,4.91c-5.08,0-8.14-3.35-8.14-8.38c0-5,3.54-8.15,8.33-8.15
		c3.49,0,5.93,1.59,6.75,4.56l-3.33,0.85c-0.52-1.81-1.91-2.48-3.61-2.48c-2.57,0-4.39,1.99-4.39,5.23c0,3.44,1.79,5.23,4.39,5.23
		c1.84,0,3.16-0.74,3.68-2.77L-126.7,129.33z"/>
	<path class="st0" d="M-120.61,133.97v-13.13h-4.89v-2.86h13.41v2.86h-4.89v13.13H-120.61z"/>
	<path class="st0" d="M-110.08,133.97v-15.99h3.64v15.99H-110.08z"/>
	<path class="st0" d="M-104.01,126.09c0-5.14,2.81-8.38,8.19-8.38c5.71,0,8.22,3.69,8.22,8.29c0,4.02-1.96,8.24-8.17,8.24
		C-102.48,134.24-104.01,129.51-104.01,126.09z M-91.36,125.93c0-1.38-0.14-5.27-4.44-5.27c-3.97,0-4.46,3.31-4.46,5.32
		c0,2.52,1.04,5.11,4.46,5.32C-94.33,131.29-91.36,130.67-91.36,125.93z"/>
	<path class="st0" d="M-75.16,133.97l-6.33-9.96h-0.05v9.96h-3.38v-15.99h3.52l6.47,10.25h0.05v-10.25h3.38v15.99H-75.16z"/>
</g>
<path class="st0" d="M-182.46,104.91c-7.73,0-13.79-2.16-18.02-6.42c-6.13-6.17-6.07-14.51-6.04-15.39V33.66
	c-0.44-9.44,1.7-16.7,6.36-21.59c5.66-5.93,12.92-6,13.22-6h82.93c0.14,0,0.29,0.01,0.43,0.04c11.11,1.89,15.57,8.6,17.35,13.9
	c1.89,5.6,1.18,10.72,1.15,10.94c-0.2,1.39-1.49,2.36-2.89,2.16c-1.39-0.2-2.36-1.49-2.16-2.89c0.09-0.65,2.03-16.17-14.1-19.05
	h-82.71c-0.04,0-5.47,0.11-9.59,4.48c-3.63,3.85-5.28,9.85-4.9,17.83c0,0.04,0,0.08,0,0.12v49.54c0,0.04,0,0.07,0,0.11
	c0,0.06-0.17,6.92,4.6,11.69c3.46,3.46,8.73,5.09,15.67,4.85c0.03,0,0.06,0,0.09,0l76.87,0.02c1.5-0.24,13.01-2.42,14.04-13.53
	V75.92h-90.91c-1.41,0-2.55-1.14-2.55-2.55V38.88c0-1.41,1.14-2.55,2.55-2.55c1.41,0,2.55,1.14,2.55,2.55v31.94h90.91
	c1.41,0,2.55,1.14,2.55,2.55v13.02c0,0.07,0,0.15-0.01,0.22c-0.57,6.59-4.01,11.86-9.94,15.23c-4.33,2.46-8.5,3.03-8.68,3.05
	c-0.11,0.01-0.22,0.02-0.33,0.02c0,0,0,0,0,0l-77.01-0.02C-181.51,104.9-181.99,104.91-182.46,104.91z"/>
<path class="st0" d="M-161.6,36.47c-7.96-0.03-9.57,7.7-9.57,7.7v12.82c2.05,7.32,9.57,7.31,9.57,7.31
	c7.64,0.46,10.14-7.36,10.14-7.36V44.61C-153.69,35.51-161.6,36.47-161.6,36.47z M-156.24,55.49c0,0-0.47,4-5.04,3.84
	c0,0-4.03,0.43-5.1-3.84v-10.1c0,0,0.65-3.83,5.1-3.94c0,0,4.86,0.11,5.04,4.11V55.49z"/>
<path class="st0" d="M-127.38,46.17c1.02-0.49,1.36-1.38,1.27-2.63c-2.56-7.95-9.83-7.08-9.83-7.08c-7.96-0.03-9.31,6.8-9.31,6.8
	l-0.26,1.49v11.66c0.12,0.42,0.25,1.38,0.4,1.75c2.48,6.13,9.17,6.13,9.17,6.13c6.25,0.38,9.06-4.79,9.87-6.68
	c0.17-0.95-0.04-1.98-1.04-2.66c-2.15-1.46-3.72,0.69-3.72,0.69c-1.87,4.4-4.94,3.78-4.94,3.78s-3.53,0.24-4.64-3.94v-10.1
	c0,0,0.34-3.77,4.79-3.88c0,0,3.32-0.42,5.03,4.05C-130.57,45.56-129.61,47.24-127.38,46.17z"/>
<path class="st0" d="M-109.2,51.69c-0.48-0.48-0.92-0.87-1.33-1.19c0.41-0.42,0.87-0.88,1.39-1.4c3.6-3.6,6.69-6.69,8.46-8.46
	c0.91-0.91,1.05-2.35-0.13-3.52c-1.15-1.15-2.44-1.04-3.35-0.2c-1.86,1.74-4.94,4.94-8.58,8.58c-0.75,0.75-1.36,1.35-1.86,1.84
	c0-3.53,0-6.49,0-8.38c0-1.28-0.9-2.4-2.53-2.4c-1.6,0-2.41,0.99-2.45,2.23c-0.09,2.55,0,6.99,0,12.13c0,5.3-0.13,8.48-0.13,10.89
	c0,1.11,0.64,2.61,2.64,2.61c1.74,0,2.5-1.42,2.52-2.65c0.03-1.9-0.01-4.06-0.03-7.09c0.2-0.2,0.39-0.39,0.58-0.59
	c0.35,0.35,0.75,0.74,1.2,1.2c3.6,3.6,6.69,6.69,8.46,8.46c0.91,0.91,2.35,1.05,3.52-0.13c1.15-1.15,1.04-2.44,0.2-3.35
	C-102.36,58.41-105.57,55.33-109.2,51.69z"/>
<g>
	<path class="st1" d="M51.96,133.97v-15.99h6.68c3.66,0,6.28,1.38,6.28,5c0,3.73-2.62,5.05-6.28,5.05h-3.05v5.94H51.96z
		 M58.4,125.17c1.68,0,2.74-0.56,2.74-2.19c0-1.52-1.06-2.14-2.74-2.14h-2.81v4.33H58.4z"/>
	<path class="st1" d="M67.7,133.97v-15.99h12.58v2.86h-8.95v3.28h8.31V127h-8.31v4.11h9.25v2.86H67.7z"/>
	<path class="st1" d="M94.19,133.97l-2.03-3.33c-1.98-3.26-2.9-3.44-3.71-3.44h-1.39v6.77h-3.61v-15.99h7.65
		c3.16,0,6.23,0.94,6.23,4.38c0,2.79-1.91,4.15-4.32,4.47v0.04c1.04,0.27,1.84,1.43,2.46,2.39l2.95,4.71H94.19z M90.93,124.66
		c2.01,0,2.62-0.74,2.62-1.92c0-1.03-0.61-1.88-2.43-1.88h-4.06v3.8H90.93z"/>
	<path class="st1" d="M100.52,133.97v-15.99h11.61v2.86h-7.98v3.57h6.89v2.86h-6.89v6.7H100.52z"/>
	<path class="st1" d="M114.92,133.97v-15.99h12.58v2.86h-8.95v3.28h8.31V127h-8.31v4.11h9.25v2.86H114.92z"/>
	<path class="st1" d="M145.3,129.33c-0.99,3.44-3.49,4.91-7.11,4.91c-5.08,0-8.14-3.35-8.14-8.38c0-5,3.54-8.15,8.33-8.15
		c3.49,0,5.93,1.59,6.75,4.56l-3.33,0.85c-0.52-1.81-1.91-2.48-3.61-2.48c-2.57,0-4.39,1.99-4.39,5.23c0,3.44,1.79,5.23,4.39,5.23
		c1.84,0,3.16-0.74,3.68-2.77L145.3,129.33z"/>
	<path class="st1" d="M151.39,133.97v-13.13h-4.89v-2.86h13.41v2.86h-4.89v13.13H151.39z"/>
	<path class="st1" d="M161.92,133.97v-15.99h3.64v15.99H161.92z"/>
	<path class="st1" d="M167.99,126.09c0-5.14,2.81-8.38,8.19-8.38c5.71,0,8.22,3.69,8.22,8.29c0,4.02-1.96,8.24-8.17,8.24
		C169.52,134.24,167.99,129.51,167.99,126.09z M180.64,125.93c0-1.38-0.14-5.27-4.44-5.27c-3.97,0-4.46,3.31-4.46,5.32
		c0,2.52,1.04,5.11,4.46,5.32C177.67,131.29,180.64,130.67,180.64,125.93z"/>
	<path class="st1" d="M196.84,133.97l-6.33-9.96h-0.05v9.96h-3.38v-15.99h3.52l6.47,10.25h0.05v-10.25h3.38v15.99H196.84z"/>
</g>
<path class="st1" d="M89.54,104.91c-7.73,0-13.79-2.16-18.02-6.42c-6.13-6.17-6.07-14.51-6.04-15.39V33.66
	c-0.44-9.44,1.7-16.7,6.36-21.59c5.66-5.93,12.92-6,13.22-6h82.93c0.14,0,0.29,0.01,0.43,0.04c11.11,1.89,15.57,8.6,17.35,13.9
	c1.89,5.6,1.18,10.72,1.15,10.94c-0.2,1.39-1.49,2.36-2.89,2.16c-1.39-0.2-2.36-1.49-2.16-2.89c0.09-0.65,2.03-16.17-14.1-19.05
	H85.06c-0.04,0-5.47,0.11-9.59,4.48c-3.63,3.85-5.28,9.85-4.9,17.83c0,0.04,0,0.08,0,0.12v49.54c0,0.04,0,0.07,0,0.11
	c0,0.06-0.17,6.92,4.6,11.69c3.46,3.46,8.73,5.09,15.67,4.85c0.03,0,0.06,0,0.09,0l76.87,0.02c1.5-0.24,13.01-2.42,14.04-13.53
	V75.92H90.93c-1.41,0-2.55-1.14-2.55-2.55V38.88c0-1.41,1.14-2.55,2.55-2.55c1.41,0,2.55,1.14,2.55,2.55v31.94h90.91
	c1.41,0,2.55,1.14,2.55,2.55v13.02c0,0.07,0,0.15-0.01,0.22c-0.57,6.59-4.01,11.86-9.94,15.23c-4.33,2.46-8.5,3.03-8.68,3.05
	c-0.11,0.01-0.22,0.02-0.33,0.02c0,0,0,0,0,0l-77.01-0.02C90.49,104.9,90.01,104.91,89.54,104.91z"/>
<path class="st1" d="M110.4,36.47c-7.96-0.03-9.57,7.7-9.57,7.7v12.82c2.05,7.32,9.57,7.31,9.57,7.31
	c7.64,0.46,10.14-7.36,10.14-7.36V44.61C118.31,35.51,110.4,36.47,110.4,36.47z M115.76,55.49c0,0-0.47,4-5.04,3.84
	c0,0-4.03,0.43-5.1-3.84v-10.1c0,0,0.65-3.83,5.1-3.94c0,0,4.86,0.11,5.04,4.11V55.49z"/>
<path class="st1" d="M144.62,46.17c1.02-0.49,1.36-1.38,1.27-2.63c-2.56-7.95-9.83-7.08-9.83-7.08c-7.96-0.03-9.31,6.8-9.31,6.8
	l-0.26,1.49v11.66c0.12,0.42,0.25,1.38,0.4,1.75c2.48,6.13,9.17,6.13,9.17,6.13c6.25,0.38,9.06-4.79,9.87-6.68
	c0.17-0.95-0.04-1.98-1.04-2.66c-2.15-1.46-3.72,0.69-3.72,0.69c-1.87,4.4-4.94,3.78-4.94,3.78s-3.53,0.24-4.64-3.94v-10.1
	c0,0,0.34-3.77,4.79-3.88c0,0,3.32-0.42,5.03,4.05C141.43,45.56,142.39,47.24,144.62,46.17z"/>
<path class="st1" d="M162.8,51.69c-0.48-0.48-0.92-0.87-1.33-1.19c0.41-0.42,0.87-0.88,1.39-1.4c3.6-3.6,6.69-6.69,8.46-8.46
	c0.91-0.91,1.05-2.35-0.13-3.52c-1.15-1.15-2.44-1.04-3.35-0.2c-1.86,1.74-4.94,4.94-8.58,8.58c-0.75,0.75-1.36,1.35-1.86,1.84
	c0-3.53,0-6.49,0-8.38c0-1.28-0.9-2.4-2.53-2.4c-1.6,0-2.41,0.99-2.45,2.23c-0.09,2.55,0,6.99,0,12.13c0,5.3-0.13,8.48-0.13,10.89
	c0,1.11,0.64,2.61,2.64,2.61c1.74,0,2.5-1.42,2.52-2.65c0.03-1.9-0.01-4.06-0.03-7.09c0.2-0.2,0.39-0.39,0.58-0.59
	c0.35,0.35,0.75,0.74,1.2,1.2c3.6,3.6,6.69,6.69,8.46,8.46c0.91,0.91,2.35,1.05,3.52-0.13c1.15-1.15,1.04-2.44,0.2-3.35
	C169.64,58.41,166.43,55.33,162.8,51.69z"/>
</svg>
